# xmcd
#
# Track frame offsets:
#	150
#	12453
#	26445
#	39777
#	55745
#	77385
#	89640
#	104703
#	123840
#	137750
#	150067
#	163767
#	174507
#	189850
#	205885
#
# Disc length: 2915 seconds
#
# Revision: 0
# Processed by: cddbd v1.4b42PL0 Copyright (c) Steve Scherf et al.
# Submitted via: EZCDDA 4.3.3.2
#
DISCID=b00b610f
DTITLE=Merle Haggard - Misery and Gin
DYEAR=1900
DGENRE=
TTITLE0=You Take Me For Granted
TTITLE1=Always Wanting You
TTITLE2=Everybody's Had The Blues
TTITLE3=Someday When Things Are Good
TTITLE4=Going Where The Lonely Go
TTITLE5=If We Make It Through December
TTITLE6=It's Not Love (But It's Not Bad)
TTITLE7=Are The Good Times Really Over
TTITLE8=My Favorite Memory
TTITLE9=Silver Wings
TTITLE10=That's The Way Love Goes
TTITLE11=Today I Started Loving You Again
TTITLE12=Twinkle, Twinkle Lucky Star
TTITLE13=What Am I Gonna Do
TTITLE14=Misery And Gin
EXTD=
EXTT0=
EXTT1=
EXTT2=
EXTT3=
EXTT4=
EXTT5=
EXTT6=
EXTT7=
EXTT8=
EXTT9=
EXTT10=
EXTT11=
EXTT12=
EXTT13=
EXTT14=
PLAYORDER=
